<svg xmlns="http://www.w3.org/2000/svg" xmlns:xlink="http://www.w3.org/1999/xlink" version="1.1"
	 width="256" height="256" viewBox="0 0 256 256" xml:space="preserve">

	<defs>
	</defs>
	<g style="stroke: none; stroke-width: 0; stroke-dasharray: none; stroke-linecap: butt; stroke-linejoin: miter; stroke-miterlimit: 10; fill: none; fill-rule: nonzero; opacity: 1;"
	   transform="translate(1.4065934065934016 1.4065934065934016) scale(2.81 2.81)">
		<path d="M 45 1.5 L 1.5 35.137 h 10.888 V 88.5 h 20.752 V 62.269 c 0 -4.221 3.337 -7.674 7.416 -7.674 h 8.889 c 4.079 0 7.416 3.453 7.416 7.674 V 88.5 h 20.752 V 35.137 H 88.5 L 45 1.5 z"
			  style="stroke: none; stroke-width: 1; stroke-dasharray: none; stroke-linecap: butt; stroke-linejoin: miter; stroke-miterlimit: 10; fill: rgb(0,0,0); fill-rule: nonzero; opacity: 1;"
			  transform=" matrix(1 0 0 1 0 0) " stroke-linecap="round" />
		<path d="M 77.612 90 H 56.86 c -0.828 0 -1.5 -0.672 -1.5 -1.5 V 62.27 c 0 -3.405 -2.654 -6.175 -5.916 -6.175 h -8.889 c -3.262 0 -5.917 2.77 -5.917 6.175 V 88.5 c 0 0.828 -0.671 1.5 -1.5 1.5 H 12.388 c -0.829 0 -1.5 -0.672 -1.5 -1.5 V 36.637 H 1.5 c -0.642 0 -1.212 -0.408 -1.419 -1.015 c -0.208 -0.607 -0.006 -1.279 0.502 -1.671 l 43.5 -33.637 c 0.54 -0.418 1.295 -0.418 1.835 0 l 43.5 33.637 c 0.507 0.393 0.709 1.064 0.502 1.671 c -0.208 0.607 -0.778 1.015 -1.42 1.015 h -9.388 V 88.5 C 79.112 89.328 78.44 90 77.612 90 z M 58.36 87 h 17.752 V 35.137 c 0 -0.829 0.672 -1.5 1.5 -1.5 h 6.496 L 45 3.396 L 5.892 33.637 h 6.496 c 0.829 0 1.5 0.671 1.5 1.5 V 87 h 17.751 V 62.27 c 0 -5.059 4 -9.175 8.917 -9.175 h 8.889 c 4.916 0 8.916 4.116 8.916 9.175 V 87 z"
			  style="stroke: none; stroke-width: 1; stroke-dasharray: none; stroke-linecap: butt; stroke-linejoin: miter; stroke-miterlimit: 10; fill: rgb(0,0,0); fill-rule: nonzero; opacity: 1;"
			  transform=" matrix(1 0 0 1 0 0) " stroke-linecap="round" />
	</g>
</svg>